<?xml version="1.0" encoding="UTF-8" standalone="no"?>
<svg
   width="953.1496062992127"
   height="1247.2440944881891"
   id="box"
   version="1.1"
   inkscape:version="1.2 (dc2aedaf03, 2022-05-15)"
   sodipodi:docname="box_130x80x130_3mm.svg"
   xmlns:inkscape="http://www.inkscape.org/namespaces/inkscape"
   xmlns:sodipodi="http://sodipodi.sourceforge.net/DTD/sodipodi-0.dtd"
   xmlns="http://www.w3.org/2000/svg"
   xmlns:svg="http://www.w3.org/2000/svg"
   xmlns:rdf="http://www.w3.org/1999/02/22-rdf-syntax-ns#"
   xmlns:cc="http://creativecommons.org/ns#"
   xmlns:dc="http://purl.org/dc/elements/1.1/">
  <defs
     id="defs4" />
  <sodipodi:namedview
     id="base"
     pagecolor="#ffffff"
     bordercolor="#666666"
     borderopacity="1.0"
     inkscape:pageopacity="0.0"
     inkscape:pageshadow="2"
     inkscape:document-units="mm"
     inkscape:current-layer="layer1"
     showgrid="false"
     fit-margin-top="0"
     fit-margin-left="0"
     fit-margin-right="0"
     fit-margin-bottom="0"
     units="mm"
     inkscape:window-maximized="1"
     inkscape:showpageshadow="2"
     inkscape:pagecheckerboard="0"
     inkscape:deskcolor="#d1d1d1"
     inkscape:zoom="0.64462119"
     inkscape:cx="205.54707"
     inkscape:cy="300.17629"
     inkscape:window-width="1920"
     inkscape:window-height="991"
     inkscape:window-x="-9"
     inkscape:window-y="-9" />
  <metadata
     id="metadata7">
    <rdf:rdf>
      <cc:work
         rdf:about="">
        <dc:format>image/svg+xml</dc:format>
        <dc:type
           rdf:resource="http://purl.org/dc/dcmitype/StillImage" />
        <dc:title />
      </cc:work>
    </rdf:rdf>
  </metadata>
  <g
     inkscape:label="Calque 1"
     inkscape:groupmode="layer"
     id="layer1">
    <path
       style="fill:#ffffff;stroke:#ff0000;stroke-width:1.06364"
       id="bottom"
       d="m 7.6536496,505.21105 -0.09555,-37.9019 11.2986634,-0.0285 -0.09412,-37.33622 -11.2986634,0.0285 -0.09602,-38.09047 11.2986634,-0.0285 -0.09412,-37.3362 -11.2986634,0.0285 -0.09602,-38.09048 11.2986634,-0.0285 -0.09412,-37.3362 -11.2986634,0.0285 -0.09602,-38.09047 11.2986634,-0.0285 -0.09412,-37.33621 -11.2986634,0.0285 -0.09602,-38.09046 11.2986634,-0.0285 -0.09412,-37.33621 -11.2986634,0.0285 -0.09602,-38.090466 11.2986634,-0.0285 -0.09412,-37.336214 -11.2986634,0.0285 -0.09555,-37.901911 43.2308614,-0.10898 0.02852,11.314001 42.665862,-0.10755 -0.0285,-11.314007 43.419177,-0.109455 0.0285,11.314002 42.66586,-0.10755 -0.0285,-11.314007 43.41916,-0.109455 0.0285,11.314002 42.66587,-0.10755 -0.0285,-11.314008 43.23086,-0.10898 0.0956,37.901908 -11.29867,0.0285 0.0941,37.336204 11.29867,-0.0285 0.096,38.090466 -11.29867,0.0285 0.0941,37.33621 11.29867,-0.0285 0.096,38.09046 -11.29866,0.0285 0.0941,37.33622 11.29866,-0.0285 0.096,38.09047 -11.29866,0.0285 0.0941,37.33621 11.29866,-0.0285 0.096,38.09048 -11.29866,0.0285 0.0941,37.3362 11.29866,-0.0285 0.096,38.09047 -11.29867,0.0285 0.0941,37.33622 11.29867,-0.0285 0.0955,37.9019 -43.23086,0.10898 -0.0285,-11.314 -42.66586,0.10756 0.0285,11.314 -43.41917,0.10945 -0.0285,-11.314 -42.66586,0.10756 0.0285,11.314 -43.419167,0.10945 -0.0285,-11.314 -42.66587,0.10756 0.02852,11.314 z" />
    <path
       style="fill:#ffffff;stroke:#ff0000;stroke-width:1.06364"
       id="bottom-2"
       d="m -591.71783,285.7246 h 37.90202 v 11.2987 h 37.33633 v -11.2987 h 38.09059 v 11.2987 h 37.33632 v -11.2987 h 38.0906 v 11.2987 h 37.33632 v -11.2987 h 38.09058 v 11.2987 h 37.33633 v -11.2987 h 38.09058 v 11.2987 h 37.33633 v -11.2987 h 38.09059 v 11.2987 h 37.33632 v -11.2987 h 37.90203 v 43.23096 h -11.31404 v 42.66603 h 11.31404 v 43.41928 h -11.31404 v 42.66609 h 11.31404 v 43.41914 h -11.31404 v 42.6661 h 11.31404 v 43.2309 h -37.90203 v -11.2987 h -37.33632 v 11.2987 h -38.09059 v -11.2987 h -37.33633 v 11.2987 h -38.09058 v -11.2987 h -37.33633 v 11.2987 h -38.09058 v -11.2987 h -37.33632 v 11.2987 h -38.0906 v -11.2987 h -37.33632 v 11.2987 h -38.09059 v -11.2987 h -37.33633 v 11.2987 h -37.90202 v -43.2309 h 11.31403 v -42.6661 h -11.31403 v -43.41914 h 11.31403 v -42.66609 h -11.31403 v -43.41928 h 11.31403 v -42.66603 h -11.31403 z" />
    <path
       id="rect798-4-5-8-4"
       style="fill:#f9f9f9;stroke:#d70000;stroke-width:1.12192"
       d="m 322.81717,520.1102 h 37.31492 v 11.5108 h -37.31492 z m 452.62234,-0.27423 h 37.31492 v 11.5108 h -37.31492 z m -75.2771,0.27423 h 37.31492 v 11.5108 h -37.31492 z m -75.27707,-3e-5 h 37.31492 v 11.5108 h -37.31492 z m -75.55133,-0.27423 h 37.31492 v 11.51079 h -37.31492 z m -75.41418,3e-5 h 37.31492 v 11.5108 h -37.31492 z m -75.55135,0.13711 h 37.31493 v 11.5108 h -37.31493 z m 229.55678,221.92155 h 46.0797 v 46.07971 h -46.0797 z m -169.03234,0 h 46.07971 v 46.07971 h -46.07971 z m 84.03141,0 h 46.0797 v 46.07971 h -46.0797 z M 429.55821,577.27194 h 274.55145 v 93.13413 H 429.55821 Z M 322.47246,519.79736 h 490.27423 v 43.73041 h -11.31402 v 43.16471 h 11.31402 v 43.91896 h -11.31402 v 43.1647 h 11.31402 v 43.91898 h -11.31402 v 43.1647 h 11.31402 v 43.91897 h -11.31402 v 43.1647 h 11.31402 v 43.91898 h -11.31402 v 43.1647 h 11.31402 v 43.73035 h -37.52483 v 11.31408 h -38.09054 v -11.31408 h -37.33626 v 11.31408 h -38.09054 v -11.31408 h -37.33626 v 11.31408 h -38.09054 v -11.31408 h -37.33627 v 11.31408 h -38.09053 v -11.31408 h -37.33627 v 11.31408 h -38.09054 v -11.31408 h -37.33628 v 11.31408 h -38.09054 v -11.31408 h -37.52483 v -43.73035 h 11.31402 v -43.1647 h -11.31402 v -43.91898 h 11.31402 v -43.1647 h -11.31402 v -43.91897 h 11.31402 v -43.1647 h -11.31402 v -43.91898 h 11.31402 v -43.1647 h -11.31402 v -43.91896 h 11.31402 v -43.16471 h -11.31402 z" />
    <path
       id="rect995-9"
       style="fill:#f9f9f9;stroke:#d70000;stroke-width:1.19302"
       d="m -500.26224,1149.7194 -0.0139,12.6274 -42.38177,-0.047 0.0139,-12.6274 z m 86.1099,-0.5907 -0.0139,12.6273 -42.38168,-0.047 0.0139,-12.6274 z m 85.9037,-0.043 -0.0139,12.6273 -42.38167,-0.047 0.0139,-12.6274 z m 9.95332,12.6134 -256.10309,0.6048 -0.10234,-43.3532 -11.29874,0.027 -0.10363,-43.9189 11.29864,-0.027 -0.10196,-43.1646 -11.29863,0.027 -0.10373,-43.91887 11.29864,-0.027 -0.10196,-43.16466 -11.29864,0.0267 -0.10372,-43.9189 11.29873,-0.0267 -0.10195,-43.16464 -11.29864,0.0267 -0.10372,-43.91893 11.29863,-0.0267 -0.10196,-43.16458 -11.29863,0.0267 -0.10373,-43.91897 11.29864,-0.0267 -0.10235,-43.35318 31.55556,-0.0745 -0.0265,-11.31406 43.41914,-0.10254 0.0265,11.31407 42.66594,-0.10075 -0.0265,-11.31406 43.41924,-0.10254 0.0265,11.31407 42.66583,-0.10075 -0.0265,-11.31407 43.41913,-0.10253 0.0265,11.31407 31.5556,-0.0745 0.10235,43.35318 11.29864,-0.0267 0.10373,43.91897 -11.29864,0.0267 0.10196,43.16458 11.29863,-0.0267 0.10373,43.91892 -11.29864,0.0267 0.10186,43.16464 11.29873,-0.0267 0.10363,43.9189 -11.29864,0.0267 0.10196,43.16466 11.29864,-0.027 0.10372,43.91887 -11.29863,0.027 0.10185,43.1646 11.29874,-0.027 0.10373,43.9189 -11.29874,0.027 0.10245,43.3532 z" />
    <path
       id="rect347-2"
       style="fill:#f9f9f9;stroke:#d70000;stroke-width:1.20567"
       d="m 139.22609,1001.1837 0.007,-12.02256 42.66069,0.024 -0.007,12.02246 z m 86.17232,-0.3518 0.007,-12.02256 42.66069,0.024 -0.007,12.02256 z m -172.155619,-0.1081 0.007,-12.02256 42.660714,0.024 -0.007,12.02246 z m 224.292559,0.5747 -256.103119,-0.5278 0.0893,-43.35315 -11.298659,-0.023 0.0905,-43.9189 11.298669,0.023 0.089,-43.1647 -11.298669,-0.023 0.0905,-43.9189 11.298659,0.023 0.089,-43.1646 -11.298659,-0.023 0.0905,-43.9189 11.298659,0.023 0.0889,-43.1647 -11.298659,-0.023 0.0905,-43.91898 11.298659,0.0233 0.0889,-43.16467 -11.298659,-0.0233 0.0905,-43.91893 11.298659,0.0233 0.0894,-43.35322 31.55558,0.0648 0.0233,-11.31406 43.419194,0.0895 -0.0233,11.31406 42.665895,0.0881 0.0234,-11.31406 43.41926,0.0895 -0.0234,11.31406 42.66576,0.0881 0.0234,-11.31406 43.41915,0.0895 -0.0234,11.31406 31.55557,0.0648 -0.0895,43.35322 11.29869,0.0233 -0.0908,43.91893 -11.29869,-0.0233 -0.0893,43.16468 11.29869,0.0233 -0.0908,43.91891 -11.29869,-0.023 -0.0894,43.1646 11.29869,0.023 -0.0908,43.919 -11.29869,-0.023 -0.0893,43.1646 11.29869,0.023 -0.0908,43.919 -11.29869,-0.023 -0.0894,43.1647 11.29869,0.023 -0.0908,43.919 -11.29868,-0.023 -0.0895,43.35331 z" />
    <path
       id="ellipse397"
       style="fill:#f9f9f9;stroke:#d70000;stroke-width:1.02196"
       d="m 782.5375,425.77159 a 33.504768,33.504768 0 0 1 -33.50477,33.50476 33.504768,33.504768 0 0 1 -33.50477,-33.50476 33.504768,33.504768 0 0 1 33.50477,-33.50477 33.504768,33.504768 0 0 1 33.50477,33.50477 z M 743.03553,12.795824 h 37.0173 v 10.965199 h -37.0173 z m -75.68842,0.2743 h 37.01733 v 10.965199 h -37.01733 z m -75.41418,-0.2743 h 37.01732 v 10.965199 h -37.01732 z m -75.13997,-0.2741 h 37.01733 v 10.965099 h -37.01733 z m -75.68843,0.274 h 37.01732 v 10.965199 h -37.01732 z m -75.27709,0.2743 h 37.01732 v 10.965099 h -37.01732 z m -38.04222,-0.5411 h 490.27421 v 43.730399 h -11.3141 V 99.424 h 11.3141 v 43.9189 h -11.3141 v 43.1647 h 11.3141 v 43.919 h -11.3141 v 43.1647 h 11.3141 v 43.91901 h -11.3141 v 43.1647 h 11.3141 v 43.919 h -11.3141 v 43.1647 h 11.3141 v 43.7304 h -37.5248 v 11.314 h -38.09064 v -11.314 h -37.3362 v 11.314 h -38.0906 v -11.314 h -37.3362 v 11.314 h -38.0905 v -11.314 h -37.3364 v 11.314 h -38.0905 v -11.314 h -37.3362 v 11.314 h -38.0906 v -11.314 h -37.3361 v 11.314 h -38.0906 v -11.314 h -37.52487 v -43.7304 h 11.31402 v -43.1647 h -11.31402 v -43.919 h 11.31402 v -43.1647 H 327.78522 V 273.5913 h 11.31402 v -43.1647 h -11.31402 v -43.919 h 11.31402 V 143.3429 H 327.78522 V 99.424 h 11.31402 V 56.259323 h -11.31402 z" />
  </g>
</svg>
