<?xml version="1.0" encoding="UTF-8" standalone="no"?>
<!-- Created with Inkscape (http://www.inkscape.org/) -->

<svg
   width="210mm"
   height="297mm"
   viewBox="0 0 210 297"
   version="1.1"
   id="svg415"
   inkscape:version="1.2 (dc2aedaf03, 2022-05-15)"
   sodipodi:docname="boite_projet_2.svg"
   xmlns:inkscape="http://www.inkscape.org/namespaces/inkscape"
   xmlns:sodipodi="http://sodipodi.sourceforge.net/DTD/sodipodi-0.dtd"
   xmlns="http://www.w3.org/2000/svg"
   xmlns:svg="http://www.w3.org/2000/svg">
  <sodipodi:namedview
     id="namedview417"
     pagecolor="#ffffff"
     bordercolor="#000000"
     borderopacity="0.25"
     inkscape:showpageshadow="2"
     inkscape:pageopacity="0.0"
     inkscape:pagecheckerboard="0"
     inkscape:deskcolor="#d1d1d1"
     inkscape:document-units="mm"
     showgrid="false"
     inkscape:zoom="0.71624579"
     inkscape:cx="398.60618"
     inkscape:cy="561.25984"
     inkscape:window-width="1680"
     inkscape:window-height="1020"
     inkscape:window-x="364"
     inkscape:window-y="137"
     inkscape:window-maximized="0"
     inkscape:current-layer="layer1" />
  <defs
     id="defs412" />
  <g
     inkscape:label="Calque 1"
     inkscape:groupmode="layer"
     id="layer1">
    <path
       style="fill:#ffffff;stroke:#ff0000;stroke-width:0.281421"
       id="bottom-2"
       d="M 8.2825047,17.02878 H 18.310748 v 2.989448 h 9.87857 V 17.02878 h 10.078135 v 2.989448 h 9.878568 V 17.02878 h 10.078138 v 2.989448 h 9.878568 V 17.02878 h 10.078132 v 2.989448 H 88.05943 V 17.02878 h 10.078133 v 2.989448 h 9.878567 V 17.02878 h 10.07814 v 2.989448 h 9.87857 V 17.02878 h 10.02824 v 11.438191 h -2.9935 v 11.288721 h 2.9935 v 11.488017 h -2.9935 v 11.28874 h 2.9935 v 11.48798 h -2.9935 v 11.28874 h 2.9935 v 11.43817 h -10.02824 v -2.98945 h -9.87857 v 2.98945 h -10.07814 v -2.98945 h -9.878567 v 2.98945 H 88.05943 v -2.98945 h -9.878571 v 2.98945 H 68.102727 v -2.98945 h -9.878568 v 2.98945 H 48.146021 v -2.98945 h -9.878568 v 2.98945 H 28.189318 v -2.98945 h -9.87857 v 2.98945 H 8.2825047 V 85.309169 H 11.276009 V 74.020429 H 8.2825047 V 62.532449 H 11.276009 V 51.243709 H 8.2825047 V 39.755692 H 11.276009 V 28.466971 H 8.2825047 Z" />
    <path
       id="rect995-9"
       style="fill:#f9f9f9;stroke:#d70000;stroke-width:0.315653"
       d="m 39.413732,235.95929 -0.0037,3.341 -11.21351,-0.0124 0.0037,-3.341 z m 22.783244,-0.15629 -0.0037,3.34097 -11.213486,-0.0124 0.0037,-3.341 z m 22.728685,-0.0114 -0.004,3.34097 -11.213479,-0.0124 0.0037,-3.341 z m 2.63348,3.3373 -67.760604,0.16002 -0.02708,-11.47054 -2.989458,0.007 -0.02742,-11.62021 2.989432,-0.007 -0.02698,-11.42063 -2.989429,0.007 -0.02745,-11.6202 2.989432,-0.007 -0.02698,-11.42065 -2.989432,0.007 -0.02744,-11.6202 2.989456,-0.007 -0.02697,-11.42064 -2.989432,0.007 -0.02744,-11.62022 2.98943,-0.007 -0.02698,-11.42063 -2.98943,0.007 -0.02745,-11.62023 2.989432,-0.007 -0.02708,-11.47053 8.349075,-0.0197 -0.007,-2.99351 11.48798,-0.0271 0.007,2.99351 11.288696,-0.0267 -0.007,-2.99351 11.488007,-0.0271 0.007,2.99352 11.288668,-0.0267 -0.007,-2.99352 11.487977,-0.0271 0.007,2.99352 8.34909,-0.0197 0.0271,11.47053 2.98943,-0.007 0.0275,11.62022 -2.98944,0.007 0.027,11.42063 2.98943,-0.007 0.0274,11.62021 -2.98944,0.007 0.0269,11.42065 2.98946,-0.007 0.0274,11.62021 -2.98943,0.007 0.027,11.42065 2.98944,-0.007 0.0274,11.6202 -2.98943,0.007 0.0269,11.42063 2.98946,-0.007 0.0274,11.62021 -2.98946,0.007 0.0271,11.47053 z" />
  </g>
</svg>
